<svg id="pay-safely-8f390ac2" xmlns="http://www.w3.org/2000/svg" width="240" height="245.545" viewBox="0 0 240 245.545">
  <rect id="Rectangle_6" data-name="Rectangle 6" width="240" height="240" rx="120" fill="#f4f7fb"/>
  <g id="Group_2" data-name="Group 2">
    <path id="Path_5" data-name="Path 5" d="M61.273,130H180.727A7.273,7.273,0,0,1,188,137.273v96.454A7.273,7.273,0,0,1,180.727,241H61.273A7.273,7.273,0,0,1,54,233.727V137.273A7.273,7.273,0,0,1,61.273,130Z" fill="#16a085" stroke="#16a085" stroke-width="9.091" fill-rule="evenodd"/>
    <path id="Path_6" data-name="Path 6" d="M151,160h24v24H151Z" fill="none" stroke="#16a085" stroke-width="1" fill-rule="evenodd"/>
  </g>
  <circle id="Ellipse_3" data-name="Ellipse 3" cx="32" cy="32" r="32" transform="translate(89 154)" fill="#fff"/>
  <path id="Path_7" data-name="Path 7" d="M124,182.987h-6a3,3,0,0,1,0-6h12a3,3,0,0,0,0-6h-6V167a3,3,0,1,0-6,0v3.987a9,9,0,0,0,0,18h6a3,3,0,0,1,0,6H112a3,3,0,0,0,0,6h6v4.036a3,3,0,1,0,6,0v-4.036a9,9,0,0,0,0-18Z" fill="#1abc9c"/>
  <path id="Path_8" data-name="Path 8" d="M84,125q0-48,36-48t36,48" fill="none" stroke="#c8d3dd" stroke-linecap="round" stroke-width="10" fill-rule="evenodd"/>
</svg>
