<svg id="post-a-job-eaf3f61f_2_" data-name="post-a-job-eaf3f61f (2)" xmlns="http://www.w3.org/2000/svg" width="240" height="257.545" viewBox="0 0 240 257.545">
  <rect id="Rectangle_7" data-name="Rectangle 7" width="240" height="240" rx="120" fill="#f4f7fb"/>
  <g id="Group_4" data-name="Group 4">
    <g id="Group_3" data-name="Group 3" transform="translate(30 86)">
      <path id="Path_9" data-name="Path 9" d="M7.273,0H172.727A7.273,7.273,0,0,1,180,7.273V159.727A7.273,7.273,0,0,1,172.727,167H7.273A7.273,7.273,0,0,1,0,159.727V7.273A7.273,7.273,0,0,1,7.273,0Z" fill="#16a085" stroke="#16a085" stroke-width="9.091" fill-rule="evenodd"/>
      <path id="Path_10" data-name="Path 10" d="M5.455,14.545H174.546v125H5.455Z" fill="#fff" fill-rule="evenodd"/>
      <circle id="Ellipse_4" data-name="Ellipse 4" cx="2.727" cy="2.727" r="2.727" transform="translate(87.273 1.818)" fill="#fff" stroke="#fff" stroke-width="1.818"/>
    </g>
  </g>
  <rect id="Rectangle_8" data-name="Rectangle 8" width="94.5" height="19.5" rx="3" transform="translate(94.5 113)" fill="#e9eef2"/>
  <rect id="Rectangle_9" data-name="Rectangle 9" width="39" height="19.5" rx="3" transform="translate(150 145)" fill="#e9eef2"/>
  <rect id="Rectangle_10" data-name="Rectangle 10" width="44" height="68" rx="3" transform="translate(94.5 144.5)" fill="#e9eef2"/>
  <rect id="Rectangle_11" data-name="Rectangle 11" width="33" height="100" rx="3" transform="translate(49.5 113)" fill="#e9eef2"/>
  <g id="Group_6" data-name="Group 6">
    <g id="Group_5" data-name="Group 5" transform="translate(157 181)">
      <circle id="Ellipse_5" data-name="Ellipse 5" cx="16" cy="16" r="16" fill="#1abc9c"/>
      <path id="Path_11" data-name="Path 11" d="M9.5,18.5l6,4m7-13-7,13" fill="none" stroke="#e9eef2" stroke-linecap="round" stroke-width="3" fill-rule="evenodd"/>
    </g>
  </g>
</svg>
